<svg width="57" height="58" viewBox="0 0 57 58" fill="none" xmlns="http://www.w3.org/2000/svg">
<path d="M47.9863 0.799892C51.9823 -1.48611 56.9623 1.39989 56.9623 6.00789V43.6699C56.9623 48.2749 51.9853 51.1639 47.9863 48.8779L32.1643 39.8389H26.9623V50.3389C26.9623 52.328 26.1721 54.2357 24.7656 55.6422C23.359 57.0487 21.4514 57.8389 19.4623 57.8389C17.4731 57.8389 15.5655 57.0487 14.159 55.6422C12.7524 54.2357 11.9623 52.328 11.9623 50.3389V39.5389C8.32821 38.7861 5.10202 36.7134 2.90679 33.7211C0.711558 30.7288 -0.296965 27.0292 0.076006 23.3367C0.448977 19.6443 2.17698 16.2211 4.92627 13.7282C7.67556 11.2354 11.2511 9.84972 14.9623 9.83889H32.1643L47.9863 0.799892ZM29.9623 15.8389H14.9623C12.5753 15.8389 10.2861 16.7871 8.5983 18.4749C6.91048 20.1628 5.96227 22.4519 5.96227 24.8389C5.96227 27.2258 6.91048 29.515 8.5983 31.2029C10.2861 32.8907 12.5753 33.8389 14.9623 33.8389H29.9623V15.8389ZM35.9623 35.0989L50.9623 43.6699V6.00789L35.9623 14.5789V35.0989ZM17.9623 39.8389V50.3389C17.9623 50.7367 18.1203 51.1182 18.4016 51.3996C18.6829 51.6809 19.0644 51.8389 19.4623 51.8389C19.8601 51.8389 20.2416 51.6809 20.5229 51.3996C20.8042 51.1182 20.9623 50.7367 20.9623 50.3389V39.8389H17.9623Z" fill="white"/>
</svg>
