<svg width="56" height="56" viewBox="0 0 56 56" fill="none" xmlns="http://www.w3.org/2000/svg">
<path d="M38.5 22.75C38.5 22.2859 38.6844 21.8408 39.0126 21.5126C39.3407 21.1844 39.7859 21 40.25 21H43.75C44.2141 21 44.6592 21.1844 44.9874 21.5126C45.3156 21.8408 45.5 22.2859 45.5 22.75V26.25C45.5 26.7141 45.3156 27.1592 44.9874 27.4874C44.6592 27.8156 44.2141 28 43.75 28H40.25C39.7859 28 39.3407 27.8156 39.0126 27.4874C38.6844 27.1592 38.5 26.7141 38.5 26.25V22.75ZM28 22.75C28 22.2859 28.1844 21.8408 28.5126 21.5126C28.8407 21.1844 29.2859 21 29.75 21H33.25C33.7141 21 34.1593 21.1844 34.4874 21.5126C34.8156 21.8408 35 22.2859 35 22.75V26.25C35 26.7141 34.8156 27.1592 34.4874 27.4874C34.1593 27.8156 33.7141 28 33.25 28H29.75C29.2859 28 28.8407 27.8156 28.5126 27.4874C28.1844 27.1592 28 26.7141 28 26.25V22.75ZM10.5 33.25C10.5 32.7859 10.6844 32.3408 11.0126 32.0126C11.3408 31.6844 11.7859 31.5 12.25 31.5H15.75C16.2141 31.5 16.6592 31.6844 16.9874 32.0126C17.3156 32.3408 17.5 32.7859 17.5 33.25V36.75C17.5 37.2141 17.3156 37.6593 16.9874 37.9874C16.6592 38.3156 16.2141 38.5 15.75 38.5H12.25C11.7859 38.5 11.3408 38.3156 11.0126 37.9874C10.6844 37.6593 10.5 37.2141 10.5 36.75V33.25ZM21 33.25C21 32.7859 21.1844 32.3408 21.5126 32.0126C21.8408 31.6844 22.2859 31.5 22.75 31.5H26.25C26.7141 31.5 27.1592 31.6844 27.4874 32.0126C27.8156 32.3408 28 32.7859 28 33.25V36.75C28 37.2141 27.8156 37.6593 27.4874 37.9874C27.1592 38.3156 26.7141 38.5 26.25 38.5H22.75C22.2859 38.5 21.8408 38.3156 21.5126 37.9874C21.1844 37.6593 21 37.2141 21 36.75V33.25Z" fill="white"/>
<path d="M12.25 0C12.7141 0 13.1592 0.184374 13.4874 0.512563C13.8156 0.840752 14 1.28587 14 1.75V3.5H42V1.75C42 1.28587 42.1844 0.840752 42.5126 0.512563C42.8408 0.184374 43.2859 0 43.75 0C44.2141 0 44.6592 0.184374 44.9874 0.512563C45.3156 0.840752 45.5 1.28587 45.5 1.75V3.5H49C50.8565 3.5 52.637 4.2375 53.9497 5.55025C55.2625 6.86301 56 8.64348 56 10.5V49C56 50.8565 55.2625 52.637 53.9497 53.9497C52.637 55.2625 50.8565 56 49 56H7C5.14348 56 3.36301 55.2625 2.05025 53.9497C0.737498 52.637 0 50.8565 0 49V10.5C0 8.64348 0.737498 6.86301 2.05025 5.55025C3.36301 4.2375 5.14348 3.5 7 3.5H10.5V1.75C10.5 1.28587 10.6844 0.840752 11.0126 0.512563C11.3408 0.184374 11.7859 0 12.25 0V0ZM3.5 14V49C3.5 49.9283 3.86875 50.8185 4.52513 51.4749C5.1815 52.1312 6.07174 52.5 7 52.5H49C49.9283 52.5 50.8185 52.1312 51.4749 51.4749C52.1312 50.8185 52.5 49.9283 52.5 49V14H3.5Z" fill="white"/>
</svg>
