<svg width="37" height="36" viewBox="0 0 37 36" fill="none" xmlns="http://www.w3.org/2000/svg">
<path d="M36.8211 17.7129L20.9726 1.87264L19.9103 0.810333C19.6683 0.569885 19.341 0.434937 18.9998 0.434937C18.6586 0.434937 18.3313 0.569885 18.0892 0.810333L1.17849 17.7129C0.930473 17.9599 0.734461 18.2542 0.602024 18.5782C0.469587 18.9023 0.40341 19.2495 0.407397 19.5996C0.423803 21.0433 1.62556 22.1959 3.06931 22.1959H4.81247V35.5547H33.1871V22.1959H34.9672C35.6685 22.1959 36.3289 21.9211 36.8252 21.4248C37.0695 21.1812 37.2632 20.8916 37.3948 20.5726C37.5265 20.2537 37.5935 19.9118 37.5922 19.5668C37.5922 18.8695 37.3174 18.2092 36.8211 17.7129ZM21.2967 32.6015H16.7029V24.2344H21.2967V32.6015ZM30.234 19.2428V32.6015H23.9217V23.25C23.9217 22.3435 23.1875 21.6094 22.281 21.6094H15.7185C14.8121 21.6094 14.0779 22.3435 14.0779 23.25V32.6015H7.7656V19.2428H3.8281L19.0039 4.07928L19.9513 5.02674L34.1756 19.2428H30.234Z" fill="#E76F51"/>
</svg>
