<svg width="89" height="89" viewBox="0 0 89 89" fill="none" xmlns="http://www.w3.org/2000/svg">
<path d="M48.231 11.4543C47.5804 11.4543 47.0518 11.983 47.0518 12.6345C47.0518 12.695 47.0776 12.7475 47.0865 12.8063H47.0518V40.7861C47.0518 41.4376 47.5804 41.9662 48.231 41.9662H76.2099V41.9315C76.2687 41.9404 76.3212 41.9662 76.3826 41.9662C77.0332 41.9662 77.5618 41.4376 77.5618 40.7861C77.3945 24.6593 64.3578 11.6226 48.231 11.4543Z" fill="white"/>
<path d="M70.7422 47.5794C70.7422 46.9279 70.2145 46.3993 69.563 46.3993H43.8429C43.5301 46.399 43.2301 46.2746 43.009 46.0533C42.7879 45.832 42.6636 45.532 42.6636 45.2191V19.5934H42.6289C42.6378 19.5346 42.6636 19.4821 42.6636 19.4216C42.6636 18.7692 42.135 18.2415 41.4835 18.2415C41.455 18.2415 41.4319 18.2557 41.4043 18.2575V18.2495C41.2993 18.2486 41.1951 18.2415 41.0901 18.2415C24.7141 18.2415 11.438 31.5176 11.438 47.8936C11.438 64.2696 24.7141 77.5457 41.0901 77.5457C57.4661 77.5457 70.7422 64.2696 70.7422 47.8936C70.7422 47.7992 70.7378 47.7058 70.736 47.6106C70.736 47.599 70.7422 47.5901 70.7422 47.5794Z" fill="white"/>
</svg>
