<svg width="40" height="27" viewBox="0 0 40 27" fill="none" xmlns="http://www.w3.org/2000/svg">
<path d="M0 9.20453H39.2727V17.7954H0V9.20453Z" fill="#E6E7E8"/>
<path d="M33.1364 0H6.13636C2.0698 0 0 3.02216 0 6.75V9.20455H39.2727V6.75C39.2727 3.02216 37.2029 0 33.1364 0Z" fill="#FF9933"/>
<path d="M0 20.25C0 23.9779 2.0698 27 6.13636 27H33.1364C37.2029 27 39.2727 23.9779 39.2727 20.25V17.7955H0V20.25Z" fill="#128807"/>
<path fill-rule="evenodd" clip-rule="evenodd" d="M19.8262 9.56226C20.6102 9.56226 21.3766 9.79483 22.0284 10.2305C22.6803 10.6663 23.1882 11.2855 23.4879 12.01C23.7877 12.7345 23.8658 13.5316 23.7124 14.3005C23.559 15.0694 23.181 15.7755 22.6261 16.3295C22.0713 16.8834 21.3646 17.2604 20.5955 17.4126C19.8264 17.5648 19.0294 17.4854 18.3054 17.1846C17.5814 16.8837 16.9629 16.3748 16.5282 15.7223C16.0935 15.0698 15.8621 14.303 15.8633 13.519C15.8651 12.4691 16.2834 11.4628 17.0263 10.721C17.7693 9.97914 18.7762 9.56242 19.8262 9.56226ZM17.1844 11.2774C17.2526 11.3547 17.2648 11.4375 17.2194 11.5069C17.2002 11.5388 17.1705 11.5631 17.1354 11.5756C17.1084 11.5856 17.0794 11.589 17.0509 11.5853C17.0223 11.5817 16.9951 11.5712 16.9715 11.5547C16.8649 11.7075 16.7711 11.8688 16.6911 12.0371C16.7837 12.0978 16.8144 12.1739 16.7837 12.258C16.7673 12.3007 16.7349 12.3355 16.6933 12.3547C16.6517 12.374 16.6042 12.3762 16.561 12.3611C16.5168 12.4494 16.4192 12.8225 16.418 12.9011C16.4586 12.9088 16.4952 12.9308 16.5211 12.963C16.5485 12.995 16.5625 13.0363 16.5604 13.0784C16.5487 13.1938 16.4775 13.2428 16.3689 13.2471C16.3517 13.3582 16.3536 13.7301 16.3708 13.8031C16.4861 13.8154 16.5469 13.8657 16.5567 13.9534C16.5702 14.0479 16.5248 14.1093 16.4143 14.1523C16.4475 14.3345 16.4947 14.5137 16.5567 14.6892C16.6 14.6761 16.6463 14.6776 16.6886 14.6935C16.7297 14.7113 16.7623 14.742 16.7794 14.7843C16.7948 14.8174 16.7979 14.8518 16.7899 14.888C16.7842 14.9149 16.7722 14.9401 16.7551 14.9616C16.738 14.9831 16.716 15.0004 16.6911 15.012C16.7733 15.1826 16.8641 15.3433 16.9715 15.4943C17.0672 15.447 17.1507 15.4581 17.2071 15.5256C17.232 15.5533 17.2461 15.589 17.247 15.6262C17.2489 15.6537 17.2441 15.6813 17.233 15.7065C17.2219 15.7317 17.2048 15.7539 17.1832 15.771C17.3059 15.9146 17.4367 16.0459 17.579 16.1668C17.6594 16.0963 17.7429 16.0852 17.8146 16.1355C17.8472 16.1582 17.8699 16.1883 17.8803 16.2251C17.8878 16.2512 17.8894 16.2786 17.8849 16.3054C17.8804 16.3321 17.8701 16.3575 17.8545 16.3798C18.0098 16.4865 18.1699 16.5786 18.3375 16.6583C18.4025 16.5669 18.4768 16.5362 18.5572 16.5669C18.5922 16.5795 18.6225 16.6024 18.6443 16.6326C18.675 16.6817 18.6793 16.7357 18.6615 16.7933C18.8382 16.8559 19.0162 16.9038 19.2002 16.9363C19.2364 16.8326 19.299 16.7841 19.3825 16.7903C19.4211 16.7933 19.4561 16.805 19.4868 16.8314C19.5298 16.8707 19.55 16.9204 19.5463 16.9817C19.7353 16.9952 19.92 16.9965 20.1035 16.9817C20.117 16.8633 20.1643 16.8038 20.2594 16.7903C20.2955 16.7853 20.3323 16.7926 20.3637 16.8111C20.3867 16.8241 20.4064 16.8421 20.4215 16.8638C20.4366 16.8855 20.4466 16.9103 20.4508 16.9363C20.6361 16.902 20.8159 16.8547 20.9896 16.7927C20.9743 16.6768 21.0025 16.6074 21.0804 16.5712C21.1088 16.559 21.1399 16.5542 21.1706 16.5571C21.2025 16.5596 21.2314 16.5694 21.2547 16.5902C21.2774 16.6093 21.2964 16.6326 21.3185 16.6565C21.4858 16.5776 21.6463 16.485 21.7984 16.3798C21.7358 16.2816 21.7726 16.1877 21.8235 16.146C21.8413 16.1307 21.8619 16.1192 21.8842 16.112C21.9064 16.1049 21.9299 16.1022 21.9532 16.1042C21.9765 16.1062 21.9992 16.1128 22.0199 16.1237C22.0406 16.1345 22.059 16.1494 22.0739 16.1674C22.2157 16.0459 22.3488 15.914 22.4679 15.7723C22.3985 15.6931 22.385 15.6096 22.4359 15.5378C22.4566 15.5057 22.4882 15.4821 22.5249 15.4716C22.5511 15.4633 22.5788 15.4611 22.606 15.4653C22.6331 15.4694 22.6589 15.4798 22.6814 15.4955C22.7888 15.3409 22.8821 15.1807 22.9618 15.0126C22.8722 14.9524 22.8397 14.8819 22.8667 14.8015C22.8765 14.7657 22.8982 14.7344 22.9281 14.7125C22.9519 14.6959 22.9793 14.685 23.008 14.6807C23.0368 14.6765 23.0661 14.679 23.0938 14.688C23.1336 14.6014 23.2331 14.2369 23.2386 14.1486C23.1961 14.1409 23.1578 14.1182 23.1306 14.0848C23.1163 14.0682 23.1056 14.0488 23.0991 14.0279C23.0927 14.007 23.0907 13.985 23.0931 13.9633C23.0955 13.9244 23.1116 13.8876 23.1386 13.8596C23.157 13.8401 23.1796 13.825 23.2047 13.8155C23.2298 13.8059 23.2566 13.8021 23.2834 13.8043C23.2987 13.6187 23.2987 13.4321 23.2834 13.2465C23.1662 13.2349 23.1103 13.1895 23.095 13.0968C23.0881 13.0618 23.0933 13.0254 23.1097 12.9937C23.1224 12.9692 23.1405 12.9479 23.1628 12.9317C23.185 12.9154 23.2108 12.9045 23.238 12.8998C23.2057 12.7165 23.1579 12.5362 23.095 12.3611C22.9815 12.3801 22.9115 12.3494 22.8741 12.2708C22.8644 12.2498 22.8589 12.2271 22.8581 12.204C22.8573 12.1809 22.861 12.1578 22.8692 12.1362C22.8774 12.1145 22.8898 12.0947 22.9057 12.0779C22.9216 12.0611 22.9407 12.0476 22.9618 12.0383C22.8823 11.8696 22.7885 11.708 22.6814 11.5553C22.5826 11.6026 22.5022 11.5916 22.4458 11.5241C22.4207 11.4955 22.4067 11.4589 22.4065 11.421C22.4053 11.394 22.4105 11.3671 22.4216 11.3425C22.4327 11.3179 22.4494 11.2962 22.4703 11.2792C22.3491 11.1374 22.2172 11.005 22.0757 10.8834C21.9911 10.9558 21.9088 10.965 21.8389 10.9147C21.8071 10.8935 21.7839 10.8618 21.7732 10.8251C21.7656 10.7994 21.7639 10.7722 21.7684 10.7457C21.7729 10.7193 21.7833 10.6941 21.799 10.6723C21.646 10.5657 21.4845 10.4719 21.3161 10.3919C21.2529 10.4827 21.1817 10.5128 21.1013 10.4858C21.0657 10.4744 21.0345 10.4521 21.0123 10.422C20.9961 10.398 20.9858 10.3706 20.9822 10.3419C20.9785 10.3132 20.9817 10.2841 20.9914 10.2569C20.8164 10.1936 20.6361 10.1457 20.4527 10.1139C20.4177 10.2133 20.3545 10.2649 20.2729 10.26C20.2347 10.2587 20.198 10.2449 20.1686 10.2207C20.1467 10.2022 20.1296 10.1787 20.1188 10.1522C20.108 10.1257 20.1038 10.097 20.1066 10.0685C19.9212 10.0528 19.7348 10.053 19.5494 10.0691C19.5365 10.1796 19.4887 10.2428 19.407 10.2563C19.3703 10.2641 19.3321 10.2594 19.2984 10.2428C19.2733 10.2304 19.2515 10.2121 19.2349 10.1896C19.2182 10.1671 19.2072 10.1409 19.2027 10.1133C19.0193 10.1467 18.8389 10.1949 18.6633 10.2575C18.6829 10.3661 18.6523 10.4373 18.5774 10.476C18.5449 10.4925 18.5105 10.4993 18.4725 10.4925C18.4439 10.4886 18.4168 10.4774 18.3939 10.4598C18.371 10.4423 18.353 10.4191 18.3418 10.3925C18.2368 10.4318 17.903 10.6251 17.8588 10.6736C17.9042 10.7644 17.8938 10.8448 17.8312 10.9024C17.8135 10.9181 17.7929 10.93 17.7705 10.9375C17.7481 10.9449 17.7245 10.9479 17.701 10.946C17.6774 10.9442 17.6545 10.9377 17.6336 10.9268C17.6126 10.9159 17.5941 10.901 17.579 10.8828C17.4374 11.0038 17.3055 11.1358 17.1844 11.2774Z" fill="#010088"/>
<path fill-rule="evenodd" clip-rule="evenodd" d="M21.5258 16.462C21.5184 16.454 21.5111 16.4485 21.5056 16.4399C21.1488 15.8945 20.7911 15.3498 20.4323 14.8058C20.4243 14.7904 20.4151 14.7751 20.4078 14.7579C20.3243 14.5634 20.2427 14.3689 20.1574 14.175C20.1545 14.165 20.1506 14.1553 20.1457 14.1461C20.1114 14.159 20.0801 14.1737 20.0433 14.1878L20.0555 14.2191C20.1322 14.4075 20.2059 14.5965 20.2838 14.7849C20.3047 14.8352 20.3133 14.888 20.3243 14.9408C20.3844 15.2224 20.4409 15.5053 20.5016 15.7876L20.7091 16.7958C20.7101 16.7982 20.7104 16.8008 20.7101 16.8034C20.7098 16.806 20.7088 16.8085 20.7072 16.8105L20.6986 16.7891C20.5305 16.2742 20.3581 15.76 20.1893 15.2451C20.1556 15.1445 20.1255 15.0451 20.0887 14.9445C20.0715 14.8941 20.066 14.8426 20.058 14.7904C20.0365 14.6444 20.0181 14.4971 19.9942 14.3511C19.9911 14.3161 19.9856 14.2817 19.9807 14.248C19.9792 14.234 19.9769 14.22 19.9739 14.2063C19.9371 14.2099 19.9034 14.2148 19.8665 14.2191C19.8665 14.2339 19.8678 14.2492 19.869 14.2646C19.8905 14.4443 19.9089 14.6248 19.9346 14.8039C19.9481 14.9021 19.9414 14.9985 19.9359 15.0966C19.9322 15.1795 19.9267 15.2623 19.923 15.3458C19.9119 15.5139 19.9034 15.6814 19.8917 15.849L19.8733 16.1951C19.8629 16.3914 19.8506 16.5872 19.8401 16.7823C19.8352 16.8375 19.834 16.894 19.8285 16.948L19.8138 16.7621L19.7947 16.3595L19.7726 16.0005C19.7665 15.8778 19.7585 15.7557 19.7518 15.633C19.7463 15.5526 19.7432 15.4722 19.7383 15.393C19.7315 15.266 19.7236 15.139 19.7174 15.0132C19.7114 14.9461 19.713 14.8786 19.7223 14.8119C19.7352 14.7211 19.745 14.6284 19.7561 14.5364C19.7684 14.4456 19.7788 14.3541 19.7898 14.2646C19.7911 14.2504 19.7911 14.2357 19.7929 14.2191L19.6855 14.205C19.6824 14.2296 19.6769 14.2535 19.6726 14.2781C19.6471 14.4655 19.6209 14.6529 19.5941 14.8401C19.5867 14.9132 19.5579 14.9807 19.5333 15.0488C19.3443 15.6244 19.1547 16.2006 18.9633 16.7756C18.959 16.786 18.9571 16.7958 18.9491 16.8056C18.9491 16.7983 18.9491 16.7927 18.9522 16.786C19.0314 16.3982 19.1111 16.0097 19.1934 15.6219C19.2461 15.3642 19.3008 15.1071 19.3529 14.85L19.3676 14.8076C19.4468 14.6131 19.5229 14.4167 19.6039 14.2222C19.6067 14.2107 19.6108 14.1996 19.6162 14.1891C19.5824 14.1746 19.5484 14.1605 19.5143 14.1467C19.51 14.1578 19.5033 14.167 19.4996 14.178C19.4149 14.3732 19.3321 14.5689 19.2474 14.7641C19.2421 14.7787 19.2355 14.7929 19.2277 14.8064C18.8656 15.3549 18.5046 15.9041 18.1447 16.454C18.1397 16.4623 18.1333 16.4696 18.1256 16.4755C18.1287 16.4657 18.1342 16.4577 18.1379 16.4491L19.0252 14.6898C19.0329 14.6738 19.0424 14.6588 19.0535 14.645L19.4327 14.1363C19.4407 14.1277 19.4456 14.1197 19.4529 14.1105C19.4216 14.0878 19.3965 14.067 19.3652 14.043C19.3584 14.051 19.3523 14.0578 19.3468 14.0657C19.2142 14.232 19.0835 14.3996 18.9541 14.5652C18.9393 14.5806 18.9258 14.5965 18.9093 14.6106C18.4257 15.0433 17.9422 15.4734 17.4568 15.9066C17.447 15.9146 17.4371 15.9232 17.4249 15.9287C17.4304 15.9232 17.4335 15.9165 17.4371 15.9122C17.8354 15.4673 18.2306 15.023 18.627 14.5781C18.6497 14.5536 18.6724 14.529 18.6939 14.5026C18.7393 14.4499 18.7902 14.4032 18.8454 14.3615L19.286 14.0148C19.2959 14.0074 19.3032 13.9995 19.3143 13.9921C19.2925 13.9627 19.27 13.9338 19.2468 13.9056C19.2369 13.9117 19.229 13.9178 19.2198 13.9246C19.051 14.051 18.8816 14.1762 18.7129 14.3032C18.694 14.3175 18.6739 14.33 18.6528 14.3406C18.0766 14.6315 17.4973 14.9224 16.9199 15.2132C16.9088 15.2181 16.8984 15.2243 16.8855 15.2243L16.9088 15.2077L17.9864 14.502C18.1741 14.3787 18.3625 14.2553 18.5491 14.1314C18.565 14.1222 18.5816 14.1142 18.5957 14.1068C18.7914 14.024 18.9866 13.9406 19.1805 13.8571C19.1897 13.8534 19.1989 13.8497 19.2099 13.8442L19.1688 13.743C19.1572 13.746 19.1498 13.7491 19.1406 13.7522C18.9418 13.8313 18.7448 13.9117 18.5448 13.9903C18.5036 14.0056 18.4589 14.013 18.4153 14.0222L17.0745 14.3008C16.9057 14.337 16.7339 14.3726 16.5646 14.4075C16.5577 14.4092 16.5505 14.4083 16.5443 14.4051C16.5909 14.3903 16.6376 14.3738 16.6836 14.3584C17.2629 14.1676 17.8415 13.9774 18.419 13.7853C18.4644 13.77 18.5129 13.7657 18.5589 13.7583C18.7454 13.7325 18.9314 13.7055 19.1161 13.6791C19.1274 13.6771 19.1387 13.6747 19.1498 13.6718C19.1461 13.6362 19.1406 13.6006 19.1375 13.5638L19.0479 13.5736L18.6773 13.6184C18.608 13.6276 18.5392 13.635 18.4711 13.6436C18.4546 13.6454 18.4386 13.646 18.4226 13.6454L18.0324 13.6227L17.8016 13.6098L17.404 13.5865L16.8241 13.5546C16.6842 13.5472 16.548 13.538 16.4087 13.5282C16.4308 13.5263 16.4553 13.5227 16.4793 13.5227L16.9548 13.4957L17.5832 13.4601L18.1036 13.4306L18.43 13.411C18.4429 13.4104 18.4582 13.4122 18.4711 13.4134L18.8454 13.4582L19.1105 13.4901H19.1375C19.1406 13.4552 19.1461 13.422 19.1498 13.384C19.1271 13.3791 19.1013 13.3754 19.0786 13.3711C18.9148 13.3484 18.7522 13.3245 18.5883 13.3005C18.5543 13.2966 18.5203 13.2921 18.4865 13.287C18.4677 13.2845 18.4492 13.2802 18.4312 13.2741C17.9434 13.114 17.4586 12.9526 16.9714 12.7924C16.8358 12.748 16.7004 12.703 16.5652 12.6574C16.5535 12.6543 16.5425 12.6491 16.5326 12.6421L16.6179 12.6593L17.6593 12.8759C17.9379 12.9342 18.2208 12.9919 18.4994 13.0508C18.5161 13.0545 18.5325 13.0596 18.5484 13.0661C18.7448 13.1434 18.9393 13.2232 19.1375 13.3018L19.167 13.3134C19.1805 13.2797 19.1952 13.2471 19.2099 13.2122C19.1999 13.2062 19.1895 13.2011 19.1786 13.1968C18.9835 13.1146 18.789 13.0305 18.5945 12.9465C18.5792 12.94 18.5644 12.9324 18.5503 12.9238C17.9999 12.5636 17.4519 12.2015 16.9008 11.8407C16.8936 11.8367 16.8878 11.8304 16.8843 11.8229L16.9064 11.8352C17.4549 12.1113 18.0041 12.3874 18.554 12.663C18.6448 12.7084 18.7331 12.763 18.8141 12.825C18.9479 12.9287 19.0841 13.0281 19.2204 13.1299C19.2296 13.1367 19.2376 13.1428 19.2474 13.149L19.3149 13.0637L19.2909 13.0428L18.7921 12.6507C18.7749 12.6372 18.7614 12.6231 18.7466 12.6083C18.3122 12.1217 17.8771 11.6345 17.4439 11.1479C17.4376 11.1429 17.4328 11.1363 17.4298 11.1289C17.4427 11.1301 17.4476 11.1387 17.4531 11.1442C17.7164 11.3774 17.9771 11.6106 18.2386 11.8438L18.9148 12.4463C18.9271 12.4574 18.9387 12.4709 18.9498 12.4832L19.337 12.9753C19.3468 12.9863 19.3541 12.998 19.3652 13.0127L19.4542 12.9446C19.4486 12.936 19.4413 12.9293 19.437 12.9213C19.3106 12.7526 19.1848 12.5832 19.0571 12.4151C19.044 12.3953 19.0319 12.3748 19.0209 12.3537C18.7264 11.7738 18.4343 11.1915 18.1416 10.611C18.1361 10.5999 18.1306 10.5913 18.1293 10.5797C18.1349 10.5858 18.1404 10.5913 18.1441 10.5968L18.7712 11.5553L19.2149 12.2303C19.2302 12.2561 19.2474 12.2831 19.2572 12.3113C19.34 12.5003 19.4198 12.69 19.5002 12.879C19.5057 12.8876 19.5094 12.8968 19.5149 12.9078L19.6168 12.8655L19.6057 12.8397C19.529 12.6482 19.4542 12.4568 19.3762 12.2666C19.3548 12.2181 19.3468 12.1678 19.3364 12.1174C19.2695 11.7977 19.205 11.4774 19.1381 11.1571C19.0725 10.8491 19.0099 10.5435 18.9455 10.2342C18.9442 10.2323 18.9455 10.2299 18.9479 10.2238L19.0019 10.3876C19.1946 10.9663 19.3854 11.5461 19.5744 12.126C19.5904 12.1714 19.5959 12.2211 19.6027 12.2684C19.6254 12.4292 19.6481 12.5912 19.6739 12.7532C19.6781 12.7838 19.68 12.8145 19.6861 12.8483L19.7929 12.8348V12.7943C19.7776 12.666 19.761 12.5372 19.7463 12.4095C19.7371 12.3347 19.7303 12.2616 19.7199 12.1886C19.7137 12.1395 19.7137 12.0898 19.7199 12.0407C19.7242 11.9573 19.7303 11.8744 19.734 11.7916L19.7641 11.2915C19.7696 11.2019 19.7714 11.1111 19.7769 11.0215C19.7849 10.9049 19.7911 10.7865 19.7978 10.6693C19.8033 10.5833 19.8076 10.4968 19.8113 10.4115C19.8162 10.3103 19.8242 10.2096 19.8328 10.109C19.8352 10.1366 19.8365 10.1648 19.8377 10.1943C19.8463 10.3176 19.8524 10.441 19.8598 10.5649L19.8917 11.127L19.9107 11.4424C19.9205 11.6247 19.9291 11.8076 19.9396 11.9898C19.9426 12.0174 19.9439 12.0432 19.9457 12.0702C19.9537 12.1414 19.9396 12.2119 19.9334 12.2825L19.8941 12.6041C19.888 12.6648 19.8788 12.7256 19.8714 12.7869C19.8702 12.8016 19.8702 12.8176 19.8659 12.8354C19.904 12.8409 19.9383 12.8446 19.9764 12.8495C19.9819 12.8231 19.9844 12.7986 19.9886 12.7728C20.0181 12.5734 20.0463 12.3739 20.0746 12.1733C20.077 12.1586 20.0831 12.1432 20.0868 12.1279C20.2869 11.5277 20.4832 10.927 20.6821 10.3256C20.6919 10.298 20.6992 10.2716 20.7146 10.2452C20.7129 10.2592 20.7107 10.2732 20.7078 10.287C20.6182 10.7214 20.525 11.1546 20.436 11.5879C20.3961 11.791 20.3538 11.9947 20.3114 12.1978C20.3084 12.2147 20.3031 12.231 20.2955 12.2463L20.0586 12.8385C20.0543 12.8471 20.0512 12.8563 20.0469 12.8673C20.0838 12.8814 20.1138 12.8955 20.1494 12.9096L20.1635 12.8802L20.4108 12.2991C20.4206 12.2794 20.428 12.2604 20.4409 12.2445L21.5117 10.611C21.5184 10.6024 21.524 10.5938 21.5344 10.5876C21.5301 10.5962 21.527 10.6048 21.5215 10.6134L20.6409 12.3623C20.6317 12.3788 20.6225 12.3954 20.6115 12.4101C20.4839 12.5801 20.3556 12.7501 20.2298 12.9188C20.2237 12.9285 20.217 12.9377 20.2096 12.9465L20.2967 13.0146C20.3036 13.0073 20.3099 12.9995 20.3157 12.9913C20.4458 12.8256 20.5753 12.6593 20.7072 12.4936C20.7217 12.475 20.738 12.4577 20.7557 12.4421C21.2405 12.0088 21.7259 11.5762 22.2112 11.1442C22.2192 11.1375 22.2247 11.1307 22.2376 11.127L22.2217 11.1467C22.0235 11.3706 21.8253 11.5934 21.624 11.8161C21.3847 12.0831 21.1484 12.3494 20.9109 12.6163C20.8987 12.6298 20.8839 12.6415 20.8711 12.6525L20.3722 13.0446L20.3476 13.0643C20.3709 13.0937 20.3918 13.122 20.4164 13.1514L20.4427 13.1318L20.9539 12.7489C20.9669 12.7396 20.9805 12.731 20.9944 12.7231C21.5835 12.4273 22.1689 12.1328 22.7543 11.837C22.7641 11.8327 22.7721 11.829 22.7825 11.829C22.7555 11.8468 22.7304 11.864 22.7034 11.8806C22.1738 12.2285 21.6442 12.5764 21.1128 12.9244C21.0981 12.933 21.0846 12.9416 21.0686 12.9483C20.8729 13.033 20.6753 13.1164 20.4814 13.2005L20.4501 13.2128C20.4667 13.2471 20.4783 13.2797 20.4931 13.314L20.5213 13.3048C20.7183 13.2269 20.914 13.1453 21.1128 13.0698C21.1619 13.0502 21.2159 13.0416 21.2693 13.0305L22.1732 12.8428C22.4542 12.7851 22.7328 12.7262 23.0145 12.6679C23.0403 12.6623 23.0642 12.6568 23.0912 12.6519C23.0979 12.6519 23.1041 12.6507 23.1139 12.6544L23.028 12.6826C22.4285 12.8808 21.8308 13.0784 21.2313 13.2741C21.1859 13.2901 21.1355 13.2944 21.0883 13.3018C20.9539 13.322 20.8214 13.3398 20.6906 13.3588C20.6428 13.3656 20.5955 13.3729 20.5477 13.3791L20.5127 13.3852C20.5164 13.4214 20.5219 13.4552 20.5244 13.4944L20.617 13.4846L20.9484 13.4453C21.0312 13.4349 21.1177 13.4233 21.2043 13.4153C21.2429 13.4122 21.2822 13.4159 21.3221 13.4177C21.4061 13.4214 21.4902 13.4288 21.578 13.4325L22.0738 13.4619C22.1474 13.4662 22.2211 13.4693 22.2971 13.4742L22.8028 13.503C22.9224 13.5104 23.0458 13.5159 23.1648 13.5233C23.1944 13.525 23.2238 13.5276 23.2532 13.5313L23.1636 13.5386L22.7924 13.5589L22.3327 13.5859L21.986 13.6043C21.8265 13.6141 21.6639 13.6233 21.5031 13.6337C21.4147 13.6374 21.3239 13.646 21.2349 13.6466C21.184 13.6478 21.1306 13.638 21.0809 13.6325C20.9719 13.6197 20.8628 13.6066 20.7538 13.5932L20.5446 13.5681H20.5244C20.5219 13.6037 20.5164 13.6386 20.5127 13.6761C20.729 13.7081 20.9454 13.7394 21.1619 13.77C21.2257 13.7779 21.2816 13.8031 21.3417 13.8221L23.0869 14.3983C23.0982 14.4007 23.1089 14.4055 23.1182 14.4124C23.1035 14.41 23.0894 14.4075 23.0746 14.4063L21.5589 14.0903L21.1589 14.0068C21.146 14.0031 21.1288 13.9982 21.1147 13.9915C20.9177 13.9136 20.7201 13.8338 20.5219 13.7546L20.4955 13.7454C20.4812 13.779 20.4662 13.8124 20.4507 13.8454L20.4832 13.8608C20.679 13.9442 20.8735 14.0271 21.068 14.1111C21.0834 14.1179 21.0987 14.1259 21.1147 14.1369L22.7482 15.2071C22.7561 15.2132 22.7666 15.2206 22.7733 15.2323C22.7654 15.2274 22.7561 15.2243 22.7494 15.2194L21.8983 14.7923C21.6013 14.6413 21.3018 14.4916 21.0018 14.3406C20.9826 14.3312 20.9647 14.3194 20.9484 14.3057C20.7796 14.1799 20.609 14.0535 20.4403 13.9264C20.4328 13.9201 20.4248 13.9143 20.4164 13.9093C20.393 13.9375 20.3722 13.9651 20.3476 13.9946L20.3709 14.013C20.5354 14.1443 20.7029 14.2756 20.868 14.4063C20.8868 14.4197 20.9039 14.4354 20.9189 14.4529L22.2192 15.9079C22.2245 15.9152 22.2287 15.9232 22.2315 15.9318C22.2247 15.9244 22.2155 15.9195 22.2088 15.914C21.7209 15.4777 21.2325 15.0439 20.7434 14.6082C20.7323 14.5984 20.7224 14.5872 20.714 14.5751L20.3163 14.0682C20.3108 14.0602 20.3041 14.0528 20.2973 14.0449C20.2691 14.0682 20.2415 14.0891 20.2132 14.1136C20.2157 14.121 20.2212 14.1289 20.2261 14.1363L20.6121 14.6505C20.6231 14.6655 20.633 14.6813 20.6416 14.6978C20.9343 15.2783 21.2264 15.86 21.5184 16.4411C21.5232 16.449 21.5263 16.4578 21.5276 16.4669H21.5258V16.462Z" fill="#010088"/>
<path fill-rule="evenodd" clip-rule="evenodd" d="M21.5198 16.462C21.5257 16.4679 21.5292 16.4744 21.534 16.4798C21.531 16.4809 21.531 16.4827 21.5275 16.4833C21.5263 16.475 21.5221 16.4697 21.521 16.462H21.5198Z" fill="#010088"/>
</svg>
