<svg width="168" height="126" viewBox="0 0 168 126" fill="none" xmlns="http://www.w3.org/2000/svg">
<path d="M168 120.75C168 122.172 167.48 123.402 166.441 124.441C165.402 125.48 164.172 126 162.75 126C161.328 126 160.098 125.48 159.059 124.441C158.02 123.402 157.5 122.172 157.5 120.75V51.6797L99.5859 80.7188C95.2109 82.9062 90.0156 84 84 84C77.9844 84 72.7891 82.9062 68.4141 80.7188L6.39844 49.7109C2.13281 47.5234 0 44.9258 0 41.918C0 38.9102 2.13281 36.3672 6.39844 34.2891L68.4141 3.28125C72.7891 1.09375 77.9844 0 84 0C90.0156 0 95.2109 1.09375 99.5859 3.28125L161.602 34.2891C165.32 36.1484 167.398 38.4453 167.836 41.1797C167.945 41.2891 168 41.5078 168 41.8359V120.75ZM104.836 91.2188L136.5 75.3047V98.4375C136.5 103.141 131.387 107.16 121.16 110.496C110.934 113.832 98.5469 115.5 84 115.5C69.4531 115.5 57.0664 113.832 46.8398 110.496C36.6133 107.16 31.5 103.141 31.5 98.4375V75.3047L63.1641 91.2188C67.5391 93.4062 74.4844 94.5 84 94.5C93.5156 94.5 100.461 93.4062 104.836 91.2188Z" fill="#E9C46A"/>
</svg>
