<svg width="165" height="140" viewBox="0 0 165 140" fill="none" xmlns="http://www.w3.org/2000/svg">
<path d="M152.308 0H12.6923C9.32726 0.00378972 6.10112 1.34591 3.72166 3.73192C1.34221 6.11792 0.00377931 9.35295 0 12.7273V127.274C0.00010417 128.945 0.328503 130.6 0.966447 132.144C1.60439 133.688 2.53939 135.091 3.71805 136.273C4.89671 137.455 6.29596 138.392 7.83591 139.031C9.37585 139.671 11.0263 140 12.6931 140L23.315 139.999C24.515 139.999 25.6903 139.657 26.7046 139.014C27.7189 138.371 28.5306 137.453 29.0456 136.366C32.1361 129.837 37.0104 124.321 43.1023 120.459C49.1943 116.596 56.254 114.546 63.4615 114.546C70.6691 114.546 77.7288 116.596 83.8207 120.459C89.9127 124.321 94.787 129.837 97.8775 136.366C98.3925 137.453 99.2044 138.372 100.219 139.015C101.233 139.658 102.409 139.999 103.609 139.999L152.308 140C155.673 139.996 158.899 138.654 161.278 136.268C163.658 133.882 164.996 130.647 165 127.273V12.7273C164.996 9.35295 163.658 6.11792 161.278 3.73192C158.899 1.34591 155.673 0.00378972 152.308 0ZM44.4231 82.7273C44.4231 78.9514 45.5397 75.2604 47.6316 72.1209C49.7236 68.9815 52.697 66.5345 56.1758 65.0896C59.6547 63.6446 63.4827 63.2666 67.1758 64.0032C70.8689 64.7398 74.2612 66.558 76.9238 69.228C79.5863 71.8979 81.3996 75.2995 82.1342 79.0028C82.8688 82.7061 63.4615 114.546 81.0508 90.0331C79.6098 93.5215 77.1696 96.5031 74.0387 98.6008C70.9079 100.699 67.227 101.818 63.4615 101.818C58.414 101.812 53.5747 99.7993 50.0056 96.2203C46.4364 92.6413 44.4287 87.7887 44.4231 82.7273ZM152.308 127.273L107.436 127.272C102.135 118.135 94.1444 110.868 84.5609 106.465C89.3653 102.176 92.7562 96.5242 94.2841 90.2586C95.8121 83.993 95.4049 77.4097 93.1165 71.3814C90.8282 65.3531 86.7668 60.1646 81.4707 56.5037C76.1746 52.8428 69.894 50.8824 63.4615 50.8824C57.029 50.8824 50.7484 52.8428 45.4524 56.5037C40.1563 60.1646 36.0949 65.3531 33.8065 71.3814C31.5182 77.4097 31.111 83.993 32.6389 90.2586C34.1669 96.5242 37.5578 102.176 42.3622 106.465C32.7787 110.868 24.7884 118.136 19.4875 127.273H12.6923V12.7273H152.308V127.273ZM25.3846 44.5455V31.8182C25.3846 30.1304 26.0532 28.5118 27.2434 27.3184C28.4335 26.125 30.0477 25.4545 31.7308 25.4545H133.269C134.952 25.4545 136.566 26.125 137.757 27.3184C138.947 28.5118 139.615 30.1304 139.615 31.8182V108.182C139.615 109.87 138.947 111.488 137.757 112.682C136.566 113.875 134.952 114.545 133.269 114.545H120.577C118.894 114.545 117.28 113.875 116.09 112.682C114.899 111.488 114.231 109.87 114.231 108.182C114.231 106.494 114.899 104.875 116.09 103.682C117.28 102.489 118.894 101.818 120.577 101.818H126.923V38.1818H38.0769V44.5455C38.0769 46.2332 37.4083 47.8518 36.2182 49.0452C35.028 50.2386 33.4139 50.9091 31.7308 50.9091C30.0477 50.9091 28.4335 50.2386 27.2434 49.0452C26.0532 47.8518 25.3846 46.2332 25.3846 44.5455Z" fill="#F4A261"/>
</svg>
